<svg xmlns="http://www.w3.org/2000/svg" xmlns:xlink="http://www.w3.org/1999/xlink" contentStyleType="text/css" data-diagram-type="CLASS" height="1085px" preserveAspectRatio="none" style="width:1571px;height:1085px;background:#FFFFFF;" version="1.1" viewBox="0 0 1571 1085" width="1571px" zoomAndPan="magnify"><title>DataBase Diagrams</title><defs/><g><g class="title" data-source-line="5"><text fill="#000000" font-family="Verdana" font-size="22" font-weight="bold" lengthAdjust="spacing" textLength="243.8691" x="659.0654" y="35.4209">DataBase Diagrams</text></g><!--cluster Identity Context (id)--><g class="cluster" data-entity="Identity Context .id." data-source-line="8" data-uid="ent0002" id="cluster_Identity Context .id."><rect fill="#FFFFFF" height="209" rx="2.5" ry="2.5" style="stroke:#000000;stroke-width:1;" width="314" x="459" y="58.6094"/><text fill="#000000" font-family="Verdana" font-size="14" font-weight="bold" lengthAdjust="spacing" textLength="161.1367" x="535.4316" y="73.6045">Identity Context (id)</text></g><!--cluster Vehicle Health Context (vh)--><g class="cluster" data-entity="Vehicle Health Context .vh." data-source-line="22" data-uid="ent0004" id="cluster_Vehicle Health Context .vh."><rect fill="#FFFFFF" height="402.5" rx="2.5" ry="2.5" style="stroke:#000000;stroke-width:1;" width="561" x="12" y="291.6094"/><text fill="#000000" font-family="Verdana" font-size="14" font-weight="bold" lengthAdjust="spacing" textLength="218.0869" x="183.4565" y="306.6045">Vehicle Health Context (vh)</text></g><!--cluster Workshop Mgmt Context (wm)--><g class="cluster" data-entity="Workshop Mgmt Context .wm." data-source-line="52" data-uid="ent0008" id="cluster_Workshop Mgmt Context .wm."><rect fill="#FFFFFF" height="378" rx="2.5" ry="2.5" style="stroke:#000000;stroke-width:1;" width="334" x="889" y="308.1094"/><text fill="#000000" font-family="Verdana" font-size="14" font-weight="bold" lengthAdjust="spacing" textLength="241.1582" x="935.4209" y="323.1045">Workshop Mgmt Context (wm)</text></g><!--cluster Service Orders Context (so)--><g class="cluster" data-entity="Service Orders Context .so." data-source-line="71" data-uid="ent0011" id="cluster_Service Orders Context .so."><rect fill="#FFFFFF" height="376.5" rx="2.5" ry="2.5" style="stroke:#000000;stroke-width:1;" width="268" x="597" y="509.6094"/><text fill="#000000" font-family="Verdana" font-size="14" font-weight="bold" lengthAdjust="spacing" textLength="218.9004" x="621.5498" y="524.6045">Service Orders Context (so)</text></g><!--cluster Inventory Context (iv)--><g class="cluster" data-entity="Inventory Context .iv." data-source-line="91" data-uid="ent0014" id="cluster_Inventory Context .iv."><rect fill="#FFFFFF" height="362" rx="2.5" ry="2.5" style="stroke:#000000;stroke-width:1;" width="268" x="1297" y="324.1094"/><text fill="#000000" font-family="Verdana" font-size="14" font-weight="bold" lengthAdjust="spacing" textLength="174.3438" x="1343.8281" y="339.1045">Inventory Context (iv)</text></g><!--cluster Billing Context (bl)--><g class="cluster" data-entity="Billing Context .bl." data-source-line="108" data-uid="ent0017" id="cluster_Billing Context .bl."><rect fill="#FFFFFF" height="361" rx="2.5" ry="2.5" style="stroke:#000000;stroke-width:1;" width="356" x="889" y="718.1094"/><text fill="#000000" font-family="Verdana" font-size="14" font-weight="bold" lengthAdjust="spacing" textLength="148.9893" x="992.5054" y="733.1045">Billing Context (bl)</text></g><!--cluster Infrastructure--><g class="cluster" data-entity="Infrastructure" data-source-line="128" data-uid="ent0020" id="cluster_Infrastructure"><rect fill="#FFFFFF" height="176" rx="2.5" ry="2.5" style="stroke:#000000;stroke-width:1;" width="242" x="1147" y="75.1094"/><text fill="#000000" font-family="Verdana" font-size="14" font-weight="bold" lengthAdjust="spacing" textLength="110.8721" x="1212.564" y="90.1045">Infrastructure</text></g><!--class id_users--><g class="entity" data-entity="id_users" data-source-line="9" data-uid="ent0003" id="entity_id_users"><rect fill="#FFFFFF" height="158.0781" rx="2.5" ry="2.5" style="stroke:#000000;stroke-width:1;" width="281.626" x="475" y="93.6094"/><ellipse cx="583.2598" cy="107.6094" fill="#FFFFFF" rx="9" ry="9" style="stroke:#000000;stroke-width:1;"/><path d="M587.3691,113.6094 L579.6504,113.6094 L579.6504,101.2188 L587.3691,101.2188 L587.3691,103.375 L582.1035,103.375 L582.1035,106.0469 L586.8691,106.0469 L586.8691,108.2031 L582.1035,108.2031 L582.1035,111.4531 L587.3691,111.4531 L587.3691,113.6094 Z " fill="#000000"/><text fill="#000000" font-family="Verdana" font-size="14" lengthAdjust="spacing" textLength="57.6064" x="600.7598" y="112.4561">id_users</text><line style="stroke:#000000;stroke-width:1;" x1="476" x2="755.626" y1="121.6094" y2="121.6094"/><ellipse cx="486" cy="135.2578" fill="#FFFFFF" rx="3" ry="3" style="stroke:#000000;stroke-width:1;"/><text fill="#000000" font-family="Verdana" font-size="14" lengthAdjust="spacing" textLength="88.751" x="493" y="138.6045">id : INT &#171;PK&#187;</text><line style="stroke:#000000;stroke-width:1;" x1="476" x2="755.626" y1="145.9063" y2="145.9063"/><ellipse cx="486" cy="159.5547" fill="#FFFFFF" rx="3" ry="3" style="stroke:#000000;stroke-width:1;"/><text fill="#000000" font-family="Verdana" font-size="14" lengthAdjust="spacing" textLength="257.626" x="493" y="162.9014">username : VARCHAR(50) &#171;UNIQUE&#187;</text><ellipse cx="486" cy="175.8516" fill="#FFFFFF" rx="3" ry="3" style="stroke:#000000;stroke-width:1;"/><text fill="#000000" font-family="Verdana" font-size="14" lengthAdjust="spacing" textLength="234.9033" x="493" y="179.1982">email : VARCHAR(100) &#171;UNIQUE&#187;</text><text fill="#000000" font-family="Verdana" font-size="14" lengthAdjust="spacing" textLength="227.083" x="493" y="195.4951">password_hash : VARCHAR(255)</text><text fill="#000000" font-family="Verdana" font-size="14" lengthAdjust="spacing" textLength="137.6689" x="493" y="211.792">role : VARCHAR(20)</text><text fill="#000000" font-family="Verdana" font-size="14" lengthAdjust="spacing" textLength="153.1318" x="493" y="228.0889">is_deleted : BOOLEAN</text><text fill="#000000" font-family="Verdana" font-size="14" lengthAdjust="spacing" textLength="120.8184" x="493" y="244.3857">row_version : INT</text></g><!--class vh_vehicles--><g class="entity" data-entity="vh_vehicles" data-source-line="23" data-uid="ent0005" id="entity_vh_vehicles"><rect fill="#FFFFFF" height="158.0781" rx="2.5" ry="2.5" style="stroke:#000000;stroke-width:1;" width="232.4346" x="325" y="326.6094"/><ellipse cx="396.8105" cy="340.6094" fill="#FFFFFF" rx="9" ry="9" style="stroke:#000000;stroke-width:1;"/><path d="M400.9199,346.6094 L393.2012,346.6094 L393.2012,334.2188 L400.9199,334.2188 L400.9199,336.375 L395.6543,336.375 L395.6543,339.0469 L400.4199,339.0469 L400.4199,341.2031 L395.6543,341.2031 L395.6543,344.4531 L400.9199,344.4531 L400.9199,346.6094 Z " fill="#000000"/><text fill="#000000" font-family="Verdana" font-size="14" lengthAdjust="spacing" textLength="81.3135" x="414.3105" y="345.4561">vh_vehicles</text><line style="stroke:#000000;stroke-width:1;" x1="326" x2="556.4346" y1="354.6094" y2="354.6094"/><ellipse cx="336" cy="368.2578" fill="#FFFFFF" rx="3" ry="3" style="stroke:#000000;stroke-width:1;"/><text fill="#000000" font-family="Verdana" font-size="14" lengthAdjust="spacing" textLength="88.751" x="343" y="371.6045">id : INT &#171;PK&#187;</text><line style="stroke:#000000;stroke-width:1;" x1="326" x2="556.4346" y1="378.9063" y2="378.9063"/><ellipse cx="336" cy="392.5547" fill="#FFFFFF" rx="3" ry="3" style="stroke:#000000;stroke-width:1;"/><text fill="#000000" font-family="Verdana" font-size="14" lengthAdjust="spacing" textLength="125.8975" x="343" y="395.9014">user_id : INT &#171;FK&#187;</text><ellipse cx="336" cy="408.8516" fill="#FFFFFF" rx="3" ry="3" style="stroke:#000000;stroke-width:1;"/><text fill="#000000" font-family="Verdana" font-size="14" lengthAdjust="spacing" textLength="208.4346" x="343" y="412.1982">vin : VARCHAR(17) &#171;UNIQUE&#187;</text><text fill="#000000" font-family="Verdana" font-size="14" lengthAdjust="spacing" textLength="146.3027" x="343" y="428.4951">plate : VARCHAR(10)</text><text fill="#000000" font-family="Verdana" font-size="14" lengthAdjust="spacing" textLength="151.8262" x="343" y="444.792">brand : VARCHAR(50)</text><text fill="#000000" font-family="Verdana" font-size="14" lengthAdjust="spacing" textLength="154.4375" x="343" y="461.0889">model : VARCHAR(50)</text><text fill="#000000" font-family="Verdana" font-size="14" lengthAdjust="spacing" textLength="68.0039" x="343" y="477.3857">year : INT</text></g><!--class vh_telemetry_batches--><g class="entity" data-entity="vh_telemetry_batches" data-source-line="33" data-uid="ent0006" id="entity_vh_telemetry_batches"><rect fill="#FFFFFF" height="125.4844" rx="2.5" ry="2.5" style="stroke:#000000;stroke-width:1;" width="284.2373" x="28" y="553.1094"/><ellipse cx="88.8799" cy="567.1094" fill="#FFFFFF" rx="9" ry="9" style="stroke:#000000;stroke-width:1;"/><path d="M92.9893,573.1094 L85.2705,573.1094 L85.2705,560.7188 L92.9893,560.7188 L92.9893,562.875 L87.7236,562.875 L87.7236,565.5469 L92.4893,565.5469 L92.4893,567.7031 L87.7236,567.7031 L87.7236,570.9531 L92.9893,570.9531 L92.9893,573.1094 Z " fill="#000000"/><text fill="#000000" font-family="Verdana" font-size="14" lengthAdjust="spacing" textLength="154.9775" x="106.3799" y="571.9561">vh_telemetry_batches</text><line style="stroke:#000000;stroke-width:1;" x1="29" x2="311.2373" y1="581.1094" y2="581.1094"/><ellipse cx="39" cy="594.7578" fill="#FFFFFF" rx="3" ry="3" style="stroke:#000000;stroke-width:1;"/><text fill="#000000" font-family="Verdana" font-size="14" lengthAdjust="spacing" textLength="113.333" x="46" y="598.1045">id : BIGINT &#171;PK&#187;</text><line style="stroke:#000000;stroke-width:1;" x1="29" x2="311.2373" y1="605.4063" y2="605.4063"/><ellipse cx="39" cy="619.0547" fill="#FFFFFF" rx="3" ry="3" style="stroke:#000000;stroke-width:1;"/><text fill="#000000" font-family="Verdana" font-size="14" lengthAdjust="spacing" textLength="145.2227" x="46" y="622.4014">vehicle_id : INT &#171;FK&#187;</text><text fill="#000000" font-family="Verdana" font-size="14" lengthAdjust="spacing" textLength="166.4004" x="46" y="638.6982">received_at : DATETIME</text><text fill="#000000" font-family="Verdana" font-size="14" lengthAdjust="spacing" textLength="260.2373" x="46" y="654.9951">raw_data : JSON -- Telemetr&#237;a Masiva</text><text fill="#000000" font-family="Verdana" font-size="14" lengthAdjust="spacing" textLength="153.8633" x="46" y="671.292">status : VARCHAR(20)</text></g><!--class vh_dtc_errors--><g class="entity" data-entity="vh_dtc_errors" data-source-line="41" data-uid="ent0007" id="entity_vh_dtc_errors"><rect fill="#FFFFFF" height="125.4844" rx="2.5" ry="2.5" style="stroke:#000000;stroke-width:1;" width="210.0537" x="347" y="553.1094"/><ellipse cx="400.791" cy="567.1094" fill="#FFFFFF" rx="9" ry="9" style="stroke:#000000;stroke-width:1;"/><path d="M404.9004,573.1094 L397.1816,573.1094 L397.1816,560.7188 L404.9004,560.7188 L404.9004,562.875 L399.6348,562.875 L399.6348,565.5469 L404.4004,565.5469 L404.4004,567.7031 L399.6348,567.7031 L399.6348,570.9531 L404.9004,570.9531 L404.9004,573.1094 Z " fill="#000000"/><text fill="#000000" font-family="Verdana" font-size="14" lengthAdjust="spacing" textLength="94.9717" x="418.291" y="571.9561">vh_dtc_errors</text><line style="stroke:#000000;stroke-width:1;" x1="348" x2="556.0537" y1="581.1094" y2="581.1094"/><ellipse cx="358" cy="594.7578" fill="#FFFFFF" rx="3" ry="3" style="stroke:#000000;stroke-width:1;"/><text fill="#000000" font-family="Verdana" font-size="14" lengthAdjust="spacing" textLength="88.751" x="365" y="598.1045">id : INT &#171;PK&#187;</text><line style="stroke:#000000;stroke-width:1;" x1="348" x2="556.0537" y1="605.4063" y2="605.4063"/><ellipse cx="358" cy="619.0547" fill="#FFFFFF" rx="3" ry="3" style="stroke:#000000;stroke-width:1;"/><text fill="#000000" font-family="Verdana" font-size="14" lengthAdjust="spacing" textLength="145.2227" x="365" y="622.4014">vehicle_id : INT &#171;FK&#187;</text><text fill="#000000" font-family="Verdana" font-size="14" lengthAdjust="spacing" textLength="186.0537" x="365" y="638.6982">error_code : VARCHAR(10)</text><text fill="#000000" font-family="Verdana" font-size="14" lengthAdjust="spacing" textLength="126.998" x="365" y="654.9951">description : TEXT</text><text fill="#000000" font-family="Verdana" font-size="14" lengthAdjust="spacing" textLength="142.6934" x="365" y="671.292">is_active : BOOLEAN</text></g><!--class wm_workshops--><g class="entity" data-entity="wm_workshops" data-source-line="53" data-uid="ent0009" id="entity_wm_workshops"><rect fill="#FFFFFF" height="125.4844" rx="2.5" ry="2.5" style="stroke:#000000;stroke-width:1;" width="302.2705" x="905" y="343.1094"/><ellipse cx="998.9453" cy="357.1094" fill="#FFFFFF" rx="9" ry="9" style="stroke:#000000;stroke-width:1;"/><path d="M1003.0547,363.1094 L995.3359,363.1094 L995.3359,350.7188 L1003.0547,350.7188 L1003.0547,352.875 L997.7891,352.875 L997.7891,355.5469 L1002.5547,355.5469 L1002.5547,357.7031 L997.7891,357.7031 L997.7891,360.9531 L1003.0547,360.9531 L1003.0547,363.1094 Z " fill="#000000"/><text fill="#000000" font-family="Verdana" font-size="14" lengthAdjust="spacing" textLength="106.8799" x="1016.4453" y="361.9561">wm_workshops</text><line style="stroke:#000000;stroke-width:1;" x1="906" x2="1206.2705" y1="371.1094" y2="371.1094"/><ellipse cx="916" cy="384.7578" fill="#FFFFFF" rx="3" ry="3" style="stroke:#000000;stroke-width:1;"/><text fill="#000000" font-family="Verdana" font-size="14" lengthAdjust="spacing" textLength="88.751" x="923" y="388.1045">id : INT &#171;PK&#187;</text><line style="stroke:#000000;stroke-width:1;" x1="906" x2="1206.2705" y1="395.4063" y2="395.4063"/><ellipse cx="916" cy="409.0547" fill="#FFFFFF" rx="3" ry="3" style="stroke:#000000;stroke-width:1;"/><text fill="#000000" font-family="Verdana" font-size="14" lengthAdjust="spacing" textLength="159.4551" x="923" y="412.4014">name : VARCHAR(100)</text><ellipse cx="916" cy="425.3516" fill="#FFFFFF" rx="3" ry="3" style="stroke:#000000;stroke-width:1;"/><text fill="#000000" font-family="Verdana" font-size="14" lengthAdjust="spacing" textLength="278.2705" x="923" y="428.6982">tax_id : VARCHAR(20) &#171;UNIQUE&#187; -- RUC</text><text fill="#000000" font-family="Verdana" font-size="14" lengthAdjust="spacing" textLength="175.0615" x="923" y="444.9951">address : VARCHAR(255)</text><text fill="#000000" font-family="Verdana" font-size="14" lengthAdjust="spacing" textLength="154.6563" x="923" y="461.292">phone : VARCHAR(20)</text></g><!--class wm_employees--><g class="entity" data-entity="wm_employees" data-source-line="61" data-uid="ent0010" id="entity_wm_employees"><rect fill="#FFFFFF" height="109.1875" rx="2.5" ry="2.5" style="stroke:#000000;stroke-width:1;" width="197.4688" x="983.5" y="561.1094"/><ellipse cx="1024.2412" cy="575.1094" fill="#FFFFFF" rx="9" ry="9" style="stroke:#000000;stroke-width:1;"/><path d="M1028.3506,581.1094 L1020.6318,581.1094 L1020.6318,568.7188 L1028.3506,568.7188 L1028.3506,570.875 L1023.085,570.875 L1023.085,573.5469 L1027.8506,573.5469 L1027.8506,575.7031 L1023.085,575.7031 L1023.085,578.9531 L1028.3506,578.9531 L1028.3506,581.1094 Z " fill="#000000"/><text fill="#000000" font-family="Verdana" font-size="14" lengthAdjust="spacing" textLength="108.4863" x="1041.7412" y="579.9561">wm_employees</text><line style="stroke:#000000;stroke-width:1;" x1="984.5" x2="1179.9688" y1="589.1094" y2="589.1094"/><ellipse cx="994.5" cy="602.7578" fill="#FFFFFF" rx="3" ry="3" style="stroke:#000000;stroke-width:1;"/><text fill="#000000" font-family="Verdana" font-size="14" lengthAdjust="spacing" textLength="88.751" x="1001.5" y="606.1045">id : INT &#171;PK&#187;</text><line style="stroke:#000000;stroke-width:1;" x1="984.5" x2="1179.9688" y1="613.4063" y2="613.4063"/><ellipse cx="994.5" cy="627.0547" fill="#FFFFFF" rx="3" ry="3" style="stroke:#000000;stroke-width:1;"/><text fill="#000000" font-family="Verdana" font-size="14" lengthAdjust="spacing" textLength="162.8594" x="1001.5" y="630.4014">workshop_id : INT &#171;FK&#187;</text><ellipse cx="994.5" cy="643.3516" fill="#FFFFFF" rx="3" ry="3" style="stroke:#000000;stroke-width:1;"/><text fill="#000000" font-family="Verdana" font-size="14" lengthAdjust="spacing" textLength="125.8975" x="1001.5" y="646.6982">user_id : INT &#171;FK&#187;</text><text fill="#000000" font-family="Verdana" font-size="14" lengthAdjust="spacing" textLength="173.4688" x="1001.5" y="662.9951">specialty : VARCHAR(50)</text></g><!--class so_work_orders--><g class="entity" data-entity="so_work_orders" data-source-line="72" data-uid="ent0012" id="entity_so_work_orders"><rect fill="#FFFFFF" height="141.7813" rx="2.5" ry="2.5" style="stroke:#000000;stroke-width:1;" width="235.7295" x="613" y="544.6094"/><ellipse cx="672.8101" cy="558.6094" fill="#FFFFFF" rx="9" ry="9" style="stroke:#000000;stroke-width:1;"/><path d="M676.9194,564.6094 L669.2007,564.6094 L669.2007,552.2188 L676.9194,552.2188 L676.9194,554.375 L671.6538,554.375 L671.6538,557.0469 L676.4194,557.0469 L676.4194,559.2031 L671.6538,559.2031 L671.6538,562.4531 L676.9194,562.4531 L676.9194,564.6094 Z " fill="#000000"/><text fill="#000000" font-family="Verdana" font-size="14" lengthAdjust="spacing" textLength="108.6094" x="690.3101" y="563.4561">so_work_orders</text><line style="stroke:#000000;stroke-width:1;" x1="614" x2="847.7295" y1="572.6094" y2="572.6094"/><ellipse cx="624" cy="586.2578" fill="#FFFFFF" rx="3" ry="3" style="stroke:#000000;stroke-width:1;"/><text fill="#000000" font-family="Verdana" font-size="14" lengthAdjust="spacing" textLength="88.751" x="631" y="589.6045">id : INT &#171;PK&#187;</text><line style="stroke:#000000;stroke-width:1;" x1="614" x2="847.7295" y1="596.9063" y2="596.9063"/><ellipse cx="624" cy="610.5547" fill="#FFFFFF" rx="3" ry="3" style="stroke:#000000;stroke-width:1;"/><text fill="#000000" font-family="Verdana" font-size="14" lengthAdjust="spacing" textLength="145.2227" x="631" y="613.9014">vehicle_id : INT &#171;FK&#187;</text><ellipse cx="624" cy="626.8516" fill="#FFFFFF" rx="3" ry="3" style="stroke:#000000;stroke-width:1;"/><text fill="#000000" font-family="Verdana" font-size="14" lengthAdjust="spacing" textLength="162.8594" x="631" y="630.1982">workshop_id : INT &#171;FK&#187;</text><text fill="#000000" font-family="Verdana" font-size="14" lengthAdjust="spacing" textLength="153.8633" x="631" y="646.4951">status : VARCHAR(20)</text><text fill="#000000" font-family="Verdana" font-size="14" lengthAdjust="spacing" textLength="211.7295" x="631" y="662.792">total_amount : DECIMAL(10,2)</text><text fill="#000000" font-family="Verdana" font-size="14" lengthAdjust="spacing" textLength="159.6807" x="631" y="679.0889">created_at : DATETIME</text></g><!--class so_tasks--><g class="entity" data-entity="so_tasks" data-source-line="81" data-uid="ent0013" id="entity_so_tasks"><rect fill="#FFFFFF" height="109.1875" rx="2.5" ry="2.5" style="stroke:#000000;stroke-width:1;" width="177.542" x="642" y="761.1094"/><ellipse cx="697.2095" cy="775.1094" fill="#FFFFFF" rx="9" ry="9" style="stroke:#000000;stroke-width:1;"/><path d="M701.3188,781.1094 L693.6001,781.1094 L693.6001,768.7188 L701.3188,768.7188 L701.3188,770.875 L696.0532,770.875 L696.0532,773.5469 L700.8188,773.5469 L700.8188,775.7031 L696.0532,775.7031 L696.0532,778.9531 L701.3188,778.9531 L701.3188,781.1094 Z " fill="#000000"/><text fill="#000000" font-family="Verdana" font-size="14" lengthAdjust="spacing" textLength="59.623" x="714.7095" y="779.9561">so_tasks</text><line style="stroke:#000000;stroke-width:1;" x1="643" x2="818.542" y1="789.1094" y2="789.1094"/><ellipse cx="653" cy="802.7578" fill="#FFFFFF" rx="3" ry="3" style="stroke:#000000;stroke-width:1;"/><text fill="#000000" font-family="Verdana" font-size="14" lengthAdjust="spacing" textLength="88.751" x="660" y="806.1045">id : INT &#171;PK&#187;</text><line style="stroke:#000000;stroke-width:1;" x1="643" x2="818.542" y1="813.4063" y2="813.4063"/><ellipse cx="653" cy="827.0547" fill="#FFFFFF" rx="3" ry="3" style="stroke:#000000;stroke-width:1;"/><text fill="#000000" font-family="Verdana" font-size="14" lengthAdjust="spacing" textLength="132.9385" x="660" y="830.4014">order_id : INT &#171;FK&#187;</text><text fill="#000000" font-family="Verdana" font-size="14" lengthAdjust="spacing" textLength="126.998" x="660" y="846.6982">description : TEXT</text><text fill="#000000" font-family="Verdana" font-size="14" lengthAdjust="spacing" textLength="153.542" x="660" y="862.9951">price : DECIMAL(10,2)</text></g><!--class iv_parts--><g class="entity" data-entity="iv_parts" data-source-line="92" data-uid="ent0015" id="entity_iv_parts"><rect fill="#FFFFFF" height="92.8906" rx="2.5" ry="2.5" style="stroke:#000000;stroke-width:1;" width="235.6611" x="1313" y="359.1094"/><ellipse cx="1399.4907" cy="373.1094" fill="#FFFFFF" rx="9" ry="9" style="stroke:#000000;stroke-width:1;"/><path d="M1403.6001,379.1094 L1395.8813,379.1094 L1395.8813,366.7188 L1403.6001,366.7188 L1403.6001,368.875 L1398.3345,368.875 L1398.3345,371.5469 L1403.1001,371.5469 L1403.1001,373.7031 L1398.3345,373.7031 L1398.3345,376.9531 L1403.6001,376.9531 L1403.6001,379.1094 Z " fill="#000000"/><text fill="#000000" font-family="Verdana" font-size="14" lengthAdjust="spacing" textLength="55.1797" x="1416.9907" y="377.9561">iv_parts</text><line style="stroke:#000000;stroke-width:1;" x1="1314" x2="1547.6611" y1="387.1094" y2="387.1094"/><ellipse cx="1324" cy="400.7578" fill="#FFFFFF" rx="3" ry="3" style="stroke:#000000;stroke-width:1;"/><text fill="#000000" font-family="Verdana" font-size="14" lengthAdjust="spacing" textLength="88.751" x="1331" y="404.1045">id : INT &#171;PK&#187;</text><line style="stroke:#000000;stroke-width:1;" x1="1314" x2="1547.6611" y1="411.4063" y2="411.4063"/><ellipse cx="1324" cy="425.0547" fill="#FFFFFF" rx="3" ry="3" style="stroke:#000000;stroke-width:1;"/><text fill="#000000" font-family="Verdana" font-size="14" lengthAdjust="spacing" textLength="159.4551" x="1331" y="428.4014">name : VARCHAR(100)</text><ellipse cx="1324" cy="441.3516" fill="#FFFFFF" rx="3" ry="3" style="stroke:#000000;stroke-width:1;"/><text fill="#000000" font-family="Verdana" font-size="14" lengthAdjust="spacing" textLength="211.6611" x="1331" y="444.6982">sku : VARCHAR(50) &#171;UNIQUE&#187;</text></g><!--class iv_stocks--><g class="entity" data-entity="iv_stocks" data-source-line="98" data-uid="ent0016" id="entity_iv_stocks"><rect fill="#FFFFFF" height="109.1875" rx="2.5" ry="2.5" style="stroke:#000000;stroke-width:1;" width="226.0635" x="1315" y="561.1094"/><ellipse cx="1392.4707" cy="575.1094" fill="#FFFFFF" rx="9" ry="9" style="stroke:#000000;stroke-width:1;"/><path d="M1396.5801,581.1094 L1388.8613,581.1094 L1388.8613,568.7188 L1396.5801,568.7188 L1396.5801,570.875 L1391.3145,570.875 L1391.3145,573.5469 L1396.0801,573.5469 L1396.0801,575.7031 L1391.3145,575.7031 L1391.3145,578.9531 L1396.5801,578.9531 L1396.5801,581.1094 Z " fill="#000000"/><text fill="#000000" font-family="Verdana" font-size="14" lengthAdjust="spacing" textLength="63.6221" x="1409.9707" y="579.9561">iv_stocks</text><line style="stroke:#000000;stroke-width:1;" x1="1316" x2="1540.0635" y1="589.1094" y2="589.1094"/><ellipse cx="1326" cy="602.7578" fill="#FFFFFF" rx="3" ry="3" style="stroke:#000000;stroke-width:1;"/><text fill="#000000" font-family="Verdana" font-size="14" lengthAdjust="spacing" textLength="202.0635" x="1333" y="606.1045">workshop_id : INT &#171;PK&#187; &#171;FK&#187;</text><ellipse cx="1326" cy="619.0547" fill="#FFFFFF" rx="3" ry="3" style="stroke:#000000;stroke-width:1;"/><text fill="#000000" font-family="Verdana" font-size="14" lengthAdjust="spacing" textLength="163.2764" x="1333" y="622.4014">part_id : INT &#171;PK&#187; &#171;FK&#187;</text><line style="stroke:#000000;stroke-width:1;" x1="1316" x2="1540.0635" y1="629.7031" y2="629.7031"/><text fill="#000000" font-family="Verdana" font-size="14" lengthAdjust="spacing" textLength="95.1357" x="1321" y="646.6982">quantity : INT</text><text fill="#000000" font-family="Verdana" font-size="14" lengthAdjust="spacing" textLength="166.5576" x="1321" y="662.9951">last_update : DATETIME</text></g><!--class bl_invoices--><g class="entity" data-entity="bl_invoices" data-source-line="109" data-uid="ent0018" id="entity_bl_invoices"><rect fill="#FFFFFF" height="125.4844" rx="2.5" ry="2.5" style="stroke:#000000;stroke-width:1;" width="322.8398" x="905.5" y="753.1094"/><ellipse cx="1024.728" cy="767.1094" fill="#FFFFFF" rx="9" ry="9" style="stroke:#000000;stroke-width:1;"/><path d="M1028.8374,773.1094 L1021.1187,773.1094 L1021.1187,760.7188 L1028.8374,760.7188 L1028.8374,762.875 L1023.5718,762.875 L1023.5718,765.5469 L1028.3374,765.5469 L1028.3374,767.7031 L1023.5718,767.7031 L1023.5718,770.9531 L1028.8374,770.9531 L1028.8374,773.1094 Z " fill="#000000"/><text fill="#000000" font-family="Verdana" font-size="14" lengthAdjust="spacing" textLength="76.8838" x="1042.228" y="771.9561">bl_invoices</text><line style="stroke:#000000;stroke-width:1;" x1="906.5" x2="1227.3398" y1="781.1094" y2="781.1094"/><ellipse cx="916.5" cy="794.7578" fill="#FFFFFF" rx="3" ry="3" style="stroke:#000000;stroke-width:1;"/><text fill="#000000" font-family="Verdana" font-size="14" lengthAdjust="spacing" textLength="88.751" x="923.5" y="798.1045">id : INT &#171;PK&#187;</text><line style="stroke:#000000;stroke-width:1;" x1="906.5" x2="1227.3398" y1="805.4063" y2="805.4063"/><ellipse cx="916.5" cy="819.0547" fill="#FFFFFF" rx="3" ry="3" style="stroke:#000000;stroke-width:1;"/><text fill="#000000" font-family="Verdana" font-size="14" lengthAdjust="spacing" textLength="132.9385" x="923.5" y="822.4014">order_id : INT &#171;FK&#187;</text><text fill="#000000" font-family="Verdana" font-size="14" lengthAdjust="spacing" textLength="298.8398" x="923.5" y="838.6982">invoice_number : VARCHAR(20) &#171;UNIQUE&#187;</text><text fill="#000000" font-family="Verdana" font-size="14" lengthAdjust="spacing" textLength="150.7119" x="923.5" y="854.9951">total : DECIMAL(10,2)</text><text fill="#000000" font-family="Verdana" font-size="14" lengthAdjust="spacing" textLength="193.1631" x="923.5" y="871.292">sunat_validated : BOOLEAN</text></g><!--class bl_payments--><g class="entity" data-entity="bl_payments" data-source-line="117" data-uid="ent0019" id="entity_bl_payments"><rect fill="#FFFFFF" height="125.4844" rx="2.5" ry="2.5" style="stroke:#000000;stroke-width:1;" width="249.1348" x="942.5" y="938.1094"/><ellipse cx="1018.6001" cy="952.1094" fill="#FFFFFF" rx="9" ry="9" style="stroke:#000000;stroke-width:1;"/><path d="M1022.7095,958.1094 L1014.9907,958.1094 L1014.9907,945.7188 L1022.7095,945.7188 L1022.7095,947.875 L1017.4438,947.875 L1017.4438,950.5469 L1022.2095,950.5469 L1022.2095,952.7031 L1017.4438,952.7031 L1017.4438,955.9531 L1022.7095,955.9531 L1022.7095,958.1094 Z " fill="#000000"/><text fill="#000000" font-family="Verdana" font-size="14" lengthAdjust="spacing" textLength="89.4346" x="1036.1001" y="956.9561">bl_payments</text><line style="stroke:#000000;stroke-width:1;" x1="943.5" x2="1190.6348" y1="966.1094" y2="966.1094"/><ellipse cx="953.5" cy="979.7578" fill="#FFFFFF" rx="3" ry="3" style="stroke:#000000;stroke-width:1;"/><text fill="#000000" font-family="Verdana" font-size="14" lengthAdjust="spacing" textLength="88.751" x="960.5" y="983.1045">id : INT &#171;PK&#187;</text><line style="stroke:#000000;stroke-width:1;" x1="943.5" x2="1190.6348" y1="990.4063" y2="990.4063"/><ellipse cx="953.5" cy="1004.0547" fill="#FFFFFF" rx="3" ry="3" style="stroke:#000000;stroke-width:1;"/><text fill="#000000" font-family="Verdana" font-size="14" lengthAdjust="spacing" textLength="145.1748" x="960.5" y="1007.4014">invoice_id : INT &#171;FK&#187;</text><text fill="#000000" font-family="Verdana" font-size="14" lengthAdjust="spacing" textLength="172.7168" x="960.5" y="1023.6982">amount : DECIMAL(10,2)</text><text fill="#000000" font-family="Verdana" font-size="14" lengthAdjust="spacing" textLength="164.9102" x="960.5" y="1039.9951">method : VARCHAR(20)</text><text fill="#000000" font-family="Verdana" font-size="14" lengthAdjust="spacing" textLength="225.1348" x="960.5" y="1056.292">transaction_ref : VARCHAR(100)</text></g><!--class sys_outbox--><g class="entity" data-entity="sys_outbox" data-source-line="129" data-uid="ent0021" id="entity_sys_outbox"><rect fill="#FFFFFF" height="125.4844" rx="2.5" ry="2.5" style="stroke:#000000;stroke-width:1;" width="209.9004" x="1163" y="110.1094"/><ellipse cx="1224.9312" cy="124.1094" fill="#FFFFFF" rx="9" ry="9" style="stroke:#000000;stroke-width:1;"/><path d="M1229.0405,130.1094 L1221.3218,130.1094 L1221.3218,117.7188 L1229.0405,117.7188 L1229.0405,119.875 L1223.7749,119.875 L1223.7749,122.5469 L1228.5405,122.5469 L1228.5405,124.7031 L1223.7749,124.7031 L1223.7749,127.9531 L1229.0405,127.9531 L1229.0405,130.1094 Z " fill="#000000"/><text fill="#000000" font-family="Verdana" font-size="14" lengthAdjust="spacing" textLength="78.5381" x="1242.4312" y="128.9561">sys_outbox</text><line style="stroke:#000000;stroke-width:1;" x1="1164" x2="1371.9004" y1="138.1094" y2="138.1094"/><ellipse cx="1174" cy="151.7578" fill="#FFFFFF" rx="3" ry="3" style="stroke:#000000;stroke-width:1;"/><text fill="#000000" font-family="Verdana" font-size="14" lengthAdjust="spacing" textLength="113.333" x="1181" y="155.1045">id : BIGINT &#171;PK&#187;</text><line style="stroke:#000000;stroke-width:1;" x1="1164" x2="1371.9004" y1="162.4063" y2="162.4063"/><text fill="#000000" font-family="Verdana" font-size="14" lengthAdjust="spacing" textLength="197.9004" x="1169" y="179.4014">event_type : VARCHAR(100)</text><text fill="#000000" font-family="Verdana" font-size="14" lengthAdjust="spacing" textLength="103.7969" x="1169" y="195.6982">payload : JSON</text><text fill="#000000" font-family="Verdana" font-size="14" lengthAdjust="spacing" textLength="171.2607" x="1169" y="211.9951">occurred_on : DATETIME</text><text fill="#000000" font-family="Verdana" font-size="14" lengthAdjust="spacing" textLength="153.5625" x="1169" y="228.292">processed : BOOLEAN</text></g><!--link id_users to vh_vehicles--><g class="link" data-entity-1="id_users" data-entity-2="vh_vehicles" data-source-line="140" data-uid="lnk22" id="link_id_users_vh_vehicles"><path codeLine="140" d="M516,259.8194 C516,283.8294 516,284.1994 516,308.2294" fill="none" id="id_users-vh_vehicles" style="stroke:#000000;stroke-width:1;"/><line style="stroke:#000000;stroke-width:1;" x1="512" x2="520" y1="255.8194" y2="255.8194"/><line style="stroke:#000000;stroke-width:1;" x1="512" x2="520" y1="258.8194" y2="258.8194"/><line style="stroke:#000000;stroke-width:1;" x1="516" x2="516" y1="259.8194" y2="251.8194"/><line style="stroke:#000000;stroke-width:1;" x1="516" x2="522" y1="318.2294" y2="326.2294"/><line style="stroke:#000000;stroke-width:1;" x1="516" x2="510" y1="318.2294" y2="326.2294"/><line style="stroke:#000000;stroke-width:1;" x1="516" x2="516" y1="318.2294" y2="326.2294"/><ellipse cx="516" cy="312.2294" fill="none" rx="4" ry="4" style="stroke:#000000;stroke-width:1;"/></g><!--link vh_vehicles to vh_telemetry_batches--><g class="link" data-entity-1="vh_vehicles" data-entity-2="vh_telemetry_batches" data-source-line="141" data-uid="lnk23" id="link_vh_vehicles_vh_telemetry_batches"><path codeLine="141" d="M336,492.8894 C336,552.5594 336,616.1094 336,616.1094 C336,616.1094 344.57,616.1094 330.22,616.1094" fill="none" id="vh_vehicles-vh_telemetry_batches" style="stroke:#000000;stroke-width:1;"/><line style="stroke:#000000;stroke-width:1;" x1="332" x2="340" y1="488.8894" y2="488.8894"/><line style="stroke:#000000;stroke-width:1;" x1="332" x2="340" y1="491.8894" y2="491.8894"/><line style="stroke:#000000;stroke-width:1;" x1="336" x2="336" y1="492.8894" y2="484.8894"/><line style="stroke:#000000;stroke-width:1;" x1="320.22" x2="312.22" y1="616.1094" y2="622.1094"/><line style="stroke:#000000;stroke-width:1;" x1="320.22" x2="312.22" y1="616.1094" y2="610.1094"/><line style="stroke:#000000;stroke-width:1;" x1="320.22" x2="312.22" y1="616.1094" y2="616.1094"/><ellipse cx="326.22" cy="616.1094" fill="none" rx="4" ry="4" style="stroke:#000000;stroke-width:1;"/></g><!--link vh_vehicles to vh_dtc_errors--><g class="link" data-entity-1="vh_vehicles" data-entity-2="vh_dtc_errors" data-source-line="142" data-uid="lnk24" id="link_vh_vehicles_vh_dtc_errors"><path codeLine="142" d="M452,492.6994 C452,515.2594 452,513.5194 452,534.9494" fill="none" id="vh_vehicles-vh_dtc_errors" style="stroke:#000000;stroke-width:1;"/><line style="stroke:#000000;stroke-width:1;" x1="448" x2="456" y1="488.6994" y2="488.6994"/><line style="stroke:#000000;stroke-width:1;" x1="448" x2="456" y1="491.6994" y2="491.6994"/><line style="stroke:#000000;stroke-width:1;" x1="452" x2="452" y1="492.6994" y2="484.6994"/><line style="stroke:#000000;stroke-width:1;" x1="452" x2="458" y1="544.9494" y2="552.9494"/><line style="stroke:#000000;stroke-width:1;" x1="452" x2="446" y1="544.9494" y2="552.9494"/><line style="stroke:#000000;stroke-width:1;" x1="452" x2="452" y1="544.9494" y2="552.9494"/><ellipse cx="452" cy="538.9494" fill="none" rx="4" ry="4" style="stroke:#000000;stroke-width:1;"/></g><!--link vh_vehicles to so_work_orders--><g class="link" data-entity-1="vh_vehicles" data-entity-2="so_work_orders" data-source-line="143" data-uid="lnk25" id="link_vh_vehicles_so_work_orders"><path codeLine="143" d="M565.28,477.1094 C628.13,477.1094 685,477.1094 685,477.1094 C685,477.1094 685,492.3994 685,526.3294" fill="none" id="vh_vehicles-so_work_orders" style="stroke:#000000;stroke-width:1;"/><line style="stroke:#000000;stroke-width:1;" x1="561.28" x2="561.28" y1="481.1094" y2="473.1094"/><line style="stroke:#000000;stroke-width:1;" x1="564.28" x2="564.28" y1="481.1094" y2="473.1094"/><line style="stroke:#000000;stroke-width:1;" x1="565.28" x2="557.28" y1="477.1094" y2="477.1094"/><line style="stroke:#000000;stroke-width:1;" x1="685" x2="691" y1="536.3294" y2="544.3294"/><line style="stroke:#000000;stroke-width:1;" x1="685" x2="679" y1="536.3294" y2="544.3294"/><line style="stroke:#000000;stroke-width:1;" x1="685" x2="685" y1="536.3294" y2="544.3294"/><ellipse cx="685" cy="530.3294" fill="none" rx="4" ry="4" style="stroke:#000000;stroke-width:1;"/></g><!--link wm_workshops to wm_employees--><g class="link" data-entity-1="wm_workshops" data-entity-2="wm_employees" data-source-line="144" data-uid="lnk26" id="link_wm_workshops_wm_employees"><path codeLine="144" d="M1082,476.3294 C1082,505.8194 1082,514.6494 1082,543.0394" fill="none" id="wm_workshops-wm_employees" style="stroke:#000000;stroke-width:1;"/><line style="stroke:#000000;stroke-width:1;" x1="1078" x2="1086" y1="472.3294" y2="472.3294"/><line style="stroke:#000000;stroke-width:1;" x1="1078" x2="1086" y1="475.3294" y2="475.3294"/><line style="stroke:#000000;stroke-width:1;" x1="1082" x2="1082" y1="476.3294" y2="468.3294"/><line style="stroke:#000000;stroke-width:1;" x1="1082" x2="1088" y1="553.0394" y2="561.0394"/><line style="stroke:#000000;stroke-width:1;" x1="1082" x2="1076" y1="553.0394" y2="561.0394"/><line style="stroke:#000000;stroke-width:1;" x1="1082" x2="1082" y1="553.0394" y2="561.0394"/><ellipse cx="1082" cy="547.0394" fill="none" rx="4" ry="4" style="stroke:#000000;stroke-width:1;"/></g><!--link wm_workshops to so_work_orders--><g class="link" data-entity-1="wm_workshops" data-entity-2="so_work_orders" data-source-line="145" data-uid="lnk27" id="link_wm_workshops_so_work_orders"><path codeLine="145" d="M944.5,476.1594 C944.5,516.3594 944.5,553.1094 944.5,553.1094 C944.5,553.1094 916.56,553.1094 867.3,553.1094" fill="none" id="wm_workshops-so_work_orders" style="stroke:#000000;stroke-width:1;"/><line style="stroke:#000000;stroke-width:1;" x1="940.5" x2="948.5" y1="472.1594" y2="472.1594"/><line style="stroke:#000000;stroke-width:1;" x1="940.5" x2="948.5" y1="475.1594" y2="475.1594"/><line style="stroke:#000000;stroke-width:1;" x1="944.5" x2="944.5" y1="476.1594" y2="468.1594"/><line style="stroke:#000000;stroke-width:1;" x1="857.3" x2="849.3" y1="553.1094" y2="559.1094"/><line style="stroke:#000000;stroke-width:1;" x1="857.3" x2="849.3" y1="553.1094" y2="547.1094"/><line style="stroke:#000000;stroke-width:1;" x1="857.3" x2="849.3" y1="553.1094" y2="553.1094"/><ellipse cx="863.3" cy="553.1094" fill="none" rx="4" ry="4" style="stroke:#000000;stroke-width:1;"/></g><!--link wm_workshops to iv_stocks--><g class="link" data-entity-1="wm_workshops" data-entity-2="iv_stocks" data-source-line="146" data-uid="lnk28" id="link_wm_workshops_iv_stocks"><path codeLine="146" d="M1193.75,476.1994 C1193.75,538.2494 1193.75,616.1094 1193.75,616.1094 C1193.75,616.1094 1237.09,616.1094 1296.99,616.1094" fill="none" id="wm_workshops-iv_stocks" style="stroke:#000000;stroke-width:1;"/><line style="stroke:#000000;stroke-width:1;" x1="1189.75" x2="1197.75" y1="472.1994" y2="472.1994"/><line style="stroke:#000000;stroke-width:1;" x1="1189.75" x2="1197.75" y1="475.1994" y2="475.1994"/><line style="stroke:#000000;stroke-width:1;" x1="1193.75" x2="1193.75" y1="476.1994" y2="468.1994"/><line style="stroke:#000000;stroke-width:1;" x1="1306.99" x2="1314.99" y1="616.1094" y2="610.1094"/><line style="stroke:#000000;stroke-width:1;" x1="1306.99" x2="1314.99" y1="616.1094" y2="622.1094"/><line style="stroke:#000000;stroke-width:1;" x1="1306.99" x2="1314.99" y1="616.1094" y2="616.1094"/><ellipse cx="1300.99" cy="616.1094" fill="none" rx="4" ry="4" style="stroke:#000000;stroke-width:1;"/></g><!--link iv_parts to iv_stocks--><g class="link" data-entity-1="iv_parts" data-entity-2="iv_stocks" data-source-line="147" data-uid="lnk29" id="link_iv_parts_iv_stocks"><path codeLine="147" d="M1428,460.2194 C1428,492.3594 1428,509.1994 1428,542.9594" fill="none" id="iv_parts-iv_stocks" style="stroke:#000000;stroke-width:1;"/><line style="stroke:#000000;stroke-width:1;" x1="1424" x2="1432" y1="456.2194" y2="456.2194"/><line style="stroke:#000000;stroke-width:1;" x1="1424" x2="1432" y1="459.2194" y2="459.2194"/><line style="stroke:#000000;stroke-width:1;" x1="1428" x2="1428" y1="460.2194" y2="452.2194"/><line style="stroke:#000000;stroke-width:1;" x1="1428" x2="1434" y1="552.9594" y2="560.9594"/><line style="stroke:#000000;stroke-width:1;" x1="1428" x2="1422" y1="552.9594" y2="560.9594"/><line style="stroke:#000000;stroke-width:1;" x1="1428" x2="1428" y1="552.9594" y2="560.9594"/><ellipse cx="1428" cy="546.9594" fill="none" rx="4" ry="4" style="stroke:#000000;stroke-width:1;"/></g><!--link so_work_orders to so_tasks--><g class="link" data-entity-1="so_work_orders" data-entity-2="so_tasks" data-source-line="148" data-uid="lnk30" id="link_so_work_orders_so_tasks"><path codeLine="148" d="M731,694.6894 C731,719.0494 731,719.9194 731,742.7994" fill="none" id="so_work_orders-so_tasks" style="stroke:#000000;stroke-width:1;"/><line style="stroke:#000000;stroke-width:1;" x1="727" x2="735" y1="690.6894" y2="690.6894"/><line style="stroke:#000000;stroke-width:1;" x1="727" x2="735" y1="693.6894" y2="693.6894"/><line style="stroke:#000000;stroke-width:1;" x1="731" x2="731" y1="694.6894" y2="686.6894"/><line style="stroke:#000000;stroke-width:1;" x1="731" x2="737" y1="752.7994" y2="760.7994"/><line style="stroke:#000000;stroke-width:1;" x1="731" x2="725" y1="752.7994" y2="760.7994"/><line style="stroke:#000000;stroke-width:1;" x1="731" x2="731" y1="752.7994" y2="760.7994"/><ellipse cx="731" cy="746.7994" fill="none" rx="4" ry="4" style="stroke:#000000;stroke-width:1;"/></g><!--link so_work_orders to bl_invoices--><g class="link" data-entity-1="so_work_orders" data-entity-2="bl_invoices" data-source-line="149" data-uid="lnk31" id="link_so_work_orders_bl_invoices"><path codeLine="149" d="M834.5,694.7694 C834.5,730.0094 834.5,757.1094 834.5,757.1094 C834.5,757.1094 850.68,757.1094 890.2,757.1094" fill="none" id="so_work_orders-bl_invoices" style="stroke:#000000;stroke-width:1;"/><line style="stroke:#000000;stroke-width:1;" x1="830.5" x2="838.5" y1="690.7694" y2="690.7694"/><line style="stroke:#000000;stroke-width:1;" x1="830.5" x2="838.5" y1="693.7694" y2="693.7694"/><line style="stroke:#000000;stroke-width:1;" x1="834.5" x2="834.5" y1="694.7694" y2="686.7694"/><line style="stroke:#000000;stroke-width:1;" x1="894.2" x2="905.2" y1="757.1094" y2="757.1094"/><ellipse cx="894.2" cy="757.1094" fill="none" rx="4" ry="4" style="stroke:#000000;stroke-width:1;"/><line style="stroke:#000000;stroke-width:1;" x1="901.2" x2="901.2" y1="753.1094" y2="761.1094"/></g><!--link bl_invoices to bl_payments--><g class="link" data-entity-1="bl_invoices" data-entity-2="bl_payments" data-source-line="150" data-uid="lnk32" id="link_bl_invoices_bl_payments"><path codeLine="150" d="M1067,886.2394 C1067,905.5294 1067,900.7594 1067,920.0394" fill="none" id="bl_invoices-bl_payments" style="stroke:#000000;stroke-width:1;"/><line style="stroke:#000000;stroke-width:1;" x1="1063" x2="1071" y1="882.2394" y2="882.2394"/><line style="stroke:#000000;stroke-width:1;" x1="1063" x2="1071" y1="885.2394" y2="885.2394"/><line style="stroke:#000000;stroke-width:1;" x1="1067" x2="1067" y1="886.2394" y2="878.2394"/><line style="stroke:#000000;stroke-width:1;" x1="1067" x2="1073" y1="930.0394" y2="938.0394"/><line style="stroke:#000000;stroke-width:1;" x1="1067" x2="1061" y1="930.0394" y2="938.0394"/><line style="stroke:#000000;stroke-width:1;" x1="1067" x2="1067" y1="930.0394" y2="938.0394"/><ellipse cx="1067" cy="924.0394" fill="none" rx="4" ry="4" style="stroke:#000000;stroke-width:1;"/></g><!--link id_users to wm_employees--><g class="link" data-entity-1="id_users" data-entity-2="wm_employees" data-source-line="151" data-uid="lnk33" id="link_id_users_wm_employees"><path codeLine="151" d="M765.19,244.1094 C826.69,244.1094 877,244.1094 877,244.1094 C877,244.1094 877,616.1094 877,616.1094 C877,616.1094 912.89,616.1094 965.4,616.1094" fill="none" id="id_users-wm_employees" style="stroke:#000000;stroke-width:1;"/><line style="stroke:#000000;stroke-width:1;" x1="761.19" x2="761.19" y1="248.1094" y2="240.1094"/><line style="stroke:#000000;stroke-width:1;" x1="764.19" x2="764.19" y1="248.1094" y2="240.1094"/><line style="stroke:#000000;stroke-width:1;" x1="765.19" x2="757.19" y1="244.1094" y2="244.1094"/><line style="stroke:#000000;stroke-width:1;" x1="975.4" x2="983.4" y1="616.1094" y2="610.1094"/><line style="stroke:#000000;stroke-width:1;" x1="975.4" x2="983.4" y1="616.1094" y2="622.1094"/><line style="stroke:#000000;stroke-width:1;" x1="975.4" x2="983.4" y1="616.1094" y2="616.1094"/><ellipse cx="969.4" cy="616.1094" fill="none" rx="4" ry="4" style="stroke:#000000;stroke-width:1;"/></g><!--SRC=[jLPHRzis47xNh-3oi3d5RAJPiW95KK1Hr5YBBNUsugvF12sn5X59L4bAZj3a9-rNx8_j9CisBKjnONHyadGVATvtzztTJogaCKLfH5XYo0UMf4IG68rOGbMHKiI52hbcI8d_G9Pqfeg88a5zHP9bH0r3CGKVReWYrqJ20oDBW4l3-0Mz7Y3dndOzn_kCVaQcPTcp6UgnuDoe3qDdJa0JEA505ayKVLIL-GnzCn2isdJ60fn9AkJcUxbU8HQWjyXnFVJktSUxz- -tbdvV0vNx4W9-laLpSseDpMdlwk8Sjjoxpb_tjhRj5Q8nOP46V7tHZao9b2ik0XmI6Mhuowkhyor8y4Z_wUN5piGa3cX45IqTk9vCHhRfQljME0TV6K_MxbMMP-Ev9FHoWERsqB56DXhQviWR0gsUFRB7jZVzZ7fvg34xfo7puGv3IY8LxlW5K9FVF8HVLkXJASOQyiFT7givItHEtxHJ6X55zwZVqRKG90dsuxUrnHoOxB0Lb8Wz2XikAuX1J9Key88eFspr_TgvFUP-pLmd0o0Lod8QOA80S6DwjkUCxPsPh700uW7RdxE92sSZhxxOl_yGD2QIvMIBbegeJBRarO5tWV8n5OAVf9fZFbK7On_8xuXPGAKlMAhMMUpPVtjwzXDV0IEDvAzJ_BS1-ZIPtis6auzeRBhcBIGtNA2tYhNS_iJ5WmnvYiRBMErI6p3Dr5x5U5M3Jo6YKJhAYg1P5NbSKwH5GylkCfRJUskxWGI1e59sLOmqv0az6bfmYCPfn0jwabWtPBmWs1VrB5FgCoWeHOlewWZ-Fa0pUpftB1kgKnbBD9dUs5Ee_99hCPnHaJEVeea8eDpjWWYWPX0bhuA8UGNz7_BvEtZfL5wv55SamYJcMLA9tBQSiJc2TFdrSWVo1OKYrrO7dflUAY8VJl6p8gZJXHT4cOeo56qthuDw1QtSdOCI9sMZORdUmfCShiw5tiFpmnwUOvWZr8yNeNp8NcxkpyrxICNz9hrjyIzlT9WffHV7KDhrlsPa_UTT9ofNHAJ2MHgisruZ6oh6_nX0zncD7FSMPFJ1SKqN1DLRH1hprooAMBBSyGxM9k-B2BCavn3U7vzGzS4uoU855PrrS5ycdVgGMK8Kpad4IbQ2W_RGy2ebHGolftYrkNUNNqU43Bqvv45NAO1fHPODZYTOq2zjULi7-Cq0MTF9RDQtxZsl37DF5d9FLry4P8d8V9K9Ub0J2ubvfXRyyPInXPQInTMSto4ie3VY9AZ7akrdxlkP4535gXfoCCsaWaEYoPReLIxtouveZqpBcRZsh7mrDhCzUdhgz_atfCsYXlQicG_cjWxSRW9g0-pt54EV4pOGlTMs0hxZZ6svCJO5yD2oVunsUDK6MirFIDEreJrlTci2EQ1Oz-i_]--></g></svg>